/* XPM */
static char *eb7bca4c36cd44b3f3a402c162535d9e2TdZD6yIkuP3eejk[] = {
/* columns rows colors chars-per-pixel */
"16 16 2 1 ",
"  c #302530",
". c #B86E25",
/* pixels */
"                ",
"                ",
"  ............  ",
"  ............  ",
"..            ..",
"..            ..",
"................",
"................",
"..    ....    ..",
"..    ....    ..",
"..            ..",
"..            ..",
"..            ..",
"..            ..",
"................",
"................"
};
