/* XPM */
static char *_27a3cdbef8e4f9b9b6aa68ec4cdfcd5uCYWgca0nqP4sqey[] = {
/* columns rows colors chars-per-pixel */
"16 16 2 1 ",
"  c #302530",
". c #B86E25",
/* pixels */
"  ............  ",
"  ............  ",
"..    ....    ..",
"..    ....    ..",
"..            ..",
"..            ..",
"....        ....",
"....        ....",
"..  ........  ..",
"..  ........  ..",
"..            ..",
"..            ..",
"..            ..",
"..            ..",
"................",
"................"
};
