/* XPM */
static char *_7dae1d55b02409f8e3fdb640e493d58uluMgAwAy84RhEjY[] = {
/* columns rows colors chars-per-pixel */
"16 16 2 1 ",
"  c #302530",
". c #FFAE00",
/* pixels */
"                ",
"                ",
"      ....      ",
"      ....      ",
"    ..    ..    ",
"    ..    ..    ",
"    ....  ..    ",
"    ....  ..    ",
"    ........    ",
"    ........    ",
"    ....  ..    ",
"    ....  ..    ",
"      ....      ",
"      ....      ",
"                ",
"                "
};
