/* XPM */
static char *c45d29fb9ee143a488d2b08c433cd376xqh6YI5S0z41G7pR[] = {
/* columns rows colors chars-per-pixel */
"16 16 2 1 ",
"  c #302530",
". c #AAA6B0",
/* pixels */
"....            ",
"....            ",
"....  ....      ",
"....  ....      ",
"....            ",
"....            ",
"..          ..  ",
"..          ..  ",
"....  ....      ",
"....  ....      ",
"....            ",
"....            ",
"....      ....  ",
"....      ....  ",
"..              ",
"..              "
};
