/* XPM */
static char *aca3dc54710247a8d106219669c04635HCaYUYAPIjTchNnv[] = {
/* columns rows colors chars-per-pixel */
"16 16 2 1 ",
"  c #302530",
". c #AAA6B0",
/* pixels */
"                ",
"                ",
"   ..           ",
"   ..           ",
"                ",
"                ",
"      ....      ",
"      ....      ",
"            ..  ",
"            ..  ",
"  ....          ",
"  ....          ",
"                ",
"                ",
"              ..",
"              .."
};
