/* XPM */
static char *_09e1434f41246bba1b409c8dc4c3cc2gey3G7JvQkIVEEHO[] = {
/* columns rows colors chars-per-pixel */
"16 16 2 1 ",
"  c #302530",
". c #AAA6B0",
/* pixels */
"                ",
"                ",
"  ..      ....  ",
"  ..      ....  ",
"                ",
"                ",
"      ....      ",
"      ....      ",
"  ..            ",
"  ..            ",
"                ",
"                ",
"  ......  ......",
"  ......  ......",
"................",
"................"
};
