/* XPM */
static char *_02e3f7e3efc40a7c841546e0d8ceb89PzWkLpo09sCoxT1W[] = {
/* columns rows colors chars-per-pixel */
"16 16 2 1 ",
"  c #302530",
". c #AAA6B0",
/* pixels */
"            ....",
"            ....",
"        ..  ....",
"        ..  ....",
"  ....      ....",
"  ....      ....",
"              ..",
"              ..",
"    ....    ....",
"    ....    ....",
"            ....",
"            ....",
"  ..  ....  ....",
"  ..  ....  ....",
"              ..",
"              .."
};
