/* XPM */
static char *d47f5145760f46a5dbcbdfa31a76d42ewA3qwocUQFwyUq9O[] = {
/* columns rows colors chars-per-pixel */
"16 16 2 1 ",
"  c #302530",
". c #99D9EA",
/* pixels */
"    ........    ",
"    ........    ",
"  ............  ",
"  ............  ",
"  ..  ....  ..  ",
"  ..  ....  ..  ",
"    ........    ",
"    ........    ",
"  ..        ..  ",
"  ..        ..  ",
"  ............  ",
"  ............  ",
"  ..  ....  ..  ",
"  ..  ....  ..  ",
"    ..    ..    ",
"    ..    ..    "
};
