/* XPM */
static char *_6cea0e10dba452f9ad17268ab1a0766emJwhnjRDOnGHNTD[] = {
/* columns rows colors chars-per-pixel */
"16 16 2 1 ",
"  c #302530",
". c #AAA6B0",
/* pixels */
"................",
"................",
"  ......  ......",
"  ......  ......",
"                ",
"                ",
"  ....          ",
"  ....          ",
"          ....  ",
"          ....  ",
"    ....        ",
"    ....        ",
"            ..  ",
"            ..  ",
"                ",
"                "
};
