/* XPM */
static char *_41de124e25f4f8d9deeef71971f80c9J3Ik1Z3xCLQwFles[] = {
/* columns rows colors chars-per-pixel */
"16 16 2 1 ",
"  c #302530",
". c #AAA6B0",
/* pixels */
"..              ",
"..              ",
"                ",
"                ",
"    ....        ",
"    ....        ",
"            ..  ",
"            ..  ",
"                ",
"                ",
"      ....      ",
"      ....      ",
"                ",
"                ",
"                ",
"                "
};
