/* XPM */
static char *_b74de9526d2428b860b192d7ed6c45e35JGb6GvWQ2WM9ZK[] = {
/* columns rows colors chars-per-pixel */
"16 16 2 1 ",
"  c #302530",
". c #AAA6B0",
/* pixels */
"              ..",
"              ..",
"  ..            ",
"  ..            ",
"        ....    ",
"        ....    ",
"                ",
"                ",
"    ....        ",
"    ....        ",
"                ",
"                ",
"            ..  ",
"            ..  ",
"                ",
"                "
};
