/* XPM */
static char *_b3bfe9aac4043c4f2253244064b1b04nsSdv8f7Gl0K2uWr[] = {
/* columns rows colors chars-per-pixel */
"16 16 2 1 ",
"  c #302530",
". c #AAA6B0",
/* pixels */
"                ",
"                ",
"  ....          ",
"  ....          ",
"  ......        ",
"  ......        ",
"  ......        ",
"  ......        ",
"          ....  ",
"          ....  ",
"        ......  ",
"        ......  ",
"    ..          ",
"    ..          ",
"                ",
"                "
};
