/* XPM */
static char *result[] = {
/* columns rows colors chars-per-pixel */
"16 16 2 1 ",
"  c #302530",
". c #AAA6B0",
/* pixels */
"                ",
"                ",
"        ....    ",
"        ....    ",
"      ........  ",
"      ........  ",
"    ..........  ",
"    ..........  ",
"                ",
"                ",
"  ..    ....    ",
"  ..    ....    ",
"        ......  ",
"        ......  ",
"                ",
"                "
};
