/* XPM */
static char *collectible[] = {
/* columns rows colors chars-per-pixel */
"16 16 2 1 ",
"  c #160712",
". c #881B25",
/* pixels */
" .. ..  . .. .. ",
"....... ........",
"................",
" ...............",
" .............  ",
"............... ",
"  ..............",
" ...............",
"................",
"..............  ",
" .............. ",
" .............. ",
" ...............",
"................",
"................",
" ..  .....  ... "
};
