/* XPM */
static char *exit[] = {
/* columns rows colors chars-per-pixel */
"16 16 6 1 ",
"  c #160712",
". c #585251",
"X c #8F9389",
"o c #1F0E1C",
"O c #26201D",
"+ c #52534C",
/* pixels */
"                ",
"                ",
"   .XXXXXXXX.   ",
"  .XooooooooX.  ",
" .Xo        oX. ",
" Xo          oX ",
" X            X ",
" X            X ",
" X            X ",
" X            X ",
" .X          X. ",
" o.X        X.o ",
"  o.XXXXXXXX.o  ",
"  OooooooooooO  ",
"   O++++++++O   ",
"                "
};
