/* XPM */
static char *exit_c[] = {
/* columns rows colors chars-per-pixel */
"16 16 11 1 ",
"  c #160712",
". c #585251",
"X c #8F9389",
"o c #52534C",
"O c #505149",
"+ c #55564E",
"@ c #4F4A49",
"# c #544F4E",
"$ c #5B5655",
"% c #1F0E1C",
"& c #26201D",
/* pixels */
"                ",
"   .XXXXXXXX.   ",
"  .XXXXXXXXXX.  ",
" .XXXXoooOXXXX. ",
" XXXXXOXXoXXXXX ",
" XXXXX+XX+XXXXX ",
" XXXX@#####XXXX ",
" XXXX#....#XXXX ",
" XXXX......XXXX ",
" .XXX.$$$$.XXX. ",
" %.XXXXXXXXXX.% ",
"  %.XXXXXXXX.%  ",
"  &%%%%%%%%%%&  ",
"   &oooooooo&   ",
"                ",
"                "
};
